<svg xmlns="http://www.w3.org/2000/svg" viewBox="0 0 124 24">
  <g fill="#fff">
    <rect x="8" y="2.8" width="8" height="2.4" />
    <rect x="1.2" y="7.6" width="5.6" height="5.6" />
    <rect x="9.2" y="7.6" width="5.6" height="5.6" />
    <rect x="17.2" y="7.6" width="5.6" height="5.6" />
    <rect x="1.2" y="15.6" width="5.6" height="5.6" />
    <rect x="9.2" y="15.6" width="5.6" height="5.6" />
    <rect x="17.2" y="15.6" width="5.6" height="5.6" />
  </g>
  <g fill="none" stroke="#fff" stroke-width="2.4" stroke-linecap="round" stroke-linejoin="round">
    <path d="M 31 5 L 31 19" />
    <path d="M 31 5 L 33.5 5 A 6 7 0 0 1 33.5 19 L 31 19" />
    <ellipse cx="48.1" cy="14" rx="4" ry="5" />
    <path d="M 63.98 11.13 A 4 5 0 1 0 63.98 16.87" />
    <path d="M 69.7 9 L 69.7 19" />
    <path d="M 73.7 9 L 69.7 14 L 74.2 19" />
    <path d="M 78.8 14 L 86.8 14" />
    <path d="M 86.8 14 A 4 5 0 1 0 85.63 17.54" />
    <path d="M 91.8 9 L 91.8 19" />
    <path d="M 91.8 9 A 4 4 0 0 1 96.3 12.5" />
    <path d="M 103.7 5 L 103.7 14 A 4.5 5 0 0 0 112.7 14 L 112.7 5" />
    <path d="M 117.3 5 L 117.3 19" />
  </g>
</svg>
